<svg id="Layer_1" enable-background="new 0 0 512.003 512.003" height="512" viewBox="0 0 512.003 512.003" width="512" xmlns="http://www.w3.org/2000/svg"><g><g clip-rule="evenodd" fill-rule="evenodd"><path d="m247.399 144.278c60.901 0 114.261 33.932 142.109 83.824 20.275 15.058 42.389 20.878 49.989 21.555 13.661 1.216 16.727-11.845 10.112-17.42-1.031-.869-5.968-6.063-11.325-14.202 37.51-17.267 63.717-55.251 63.717-99.065 0-59.934-49.037-108.97-108.97-108.97h-50.127c-59.934 0-108.97 49.037-108.97 108.971 0 8.705 1.041 17.179 2.994 25.307z" fill="#ffea60"/><path d="m410 306.878c0-28.53-7.447-55.405-20.492-78.777-27.848-49.892-81.208-83.824-142.109-83.824h-10.471-64.326c-89.431 0-162.601 73.17-162.601 162.601 0 65.376 39.105 122.055 95.076 147.82-7.993 12.144-15.36 19.895-16.898 21.191-9.871 8.317-5.295 27.808 15.089 25.993 11.381-1.014 44.574-9.755 74.916-32.403h69.215c89.431.001 162.601-73.169 162.601-162.601z" fill="#66e0f7"/><path d="m244.28 296.276-51.305-38.898c-13.274-10.064-28.72-11.203-39.679 6.597-17.877 28.201-35.755 56.403-53.633 84.604-7.578 11.953 6.139 23.771 16.836 15.361 20.527-16.14 38.581-30.335 59.108-46.475l51.305 38.898c13.274 10.063 28.721 11.202 39.68-6.597 17.877-28.201 35.755-56.403 53.633-84.604 7.876-12.424-6.183-23.737-16.442-15.67-20.528 16.139-38.976 30.644-59.503 46.784z" fill="#fff"/></g><g><path d="m325.597 242.303c-7.901-7.141-19.415-7.417-27.995-.673l-53.433 42.013-45.152-34.233c-9.995-7.578-20.484-10.603-30.331-8.763-6.576 1.231-16.049 5.358-23.869 18.026l-53.601 84.553c-5.957 9.397-4.624 20.924 3.241 28.03 4.069 3.677 9.11 5.524 14.23 5.524 4.847 0 9.763-1.655 13.991-4.979l53.039-41.702 45.152 34.232c9.995 7.577 20.485 10.605 30.332 8.763 6.575-1.231 16.051-5.36 23.872-18.031l53.597-84.547c6.133-9.674 4.897-21.012-3.073-28.213zm-13.819 17.504-53.633 84.604c-.023.037-.046.074-.069.111-3.202 5.202-6.754 8.201-10.556 8.912-4.097.768-9.268-1.023-14.566-5.041l-51.306-38.897c-3.624-2.747-8.647-2.704-12.223.107l-59.108 46.475c-1.017.798-1.819.91-2.452.338-.231-.209-.847-.765.243-2.482l53.633-84.605c.023-.036.046-.073.069-.11 3.202-5.202 6.754-8.201 10.556-8.912.62-.116 1.265-.174 1.931-.174 3.732 0 8.14 1.806 12.636 5.215l51.306 38.898c3.625 2.749 8.647 2.706 12.223-.107l59.502-46.785c.873-.687 1.623-.756 2.226-.21.539.486.401 1.382-.412 2.663z"/><path d="m512.002 118.971c0-65.601-53.369-118.971-118.97-118.971h-50.128c-38.759 0-75.244 19.118-97.599 51.142-3.162 4.528-2.054 10.762 2.475 13.924 4.529 3.16 10.762 2.054 13.925-2.477 18.616-26.668 48.972-42.589 81.199-42.589h50.128c54.572 0 98.97 44.398 98.97 98.971 0 38.471-22.727 73.79-57.899 89.98-2.647 1.219-4.631 3.531-5.433 6.333s-.341 5.814 1.261 8.249c5.286 8.03 10.475 13.859 12.842 16.006-.392.13-1.158.267-2.389.156-4.281-.381-23.851-4.619-43.16-18.353-7.555-13.124-16.897-25.352-27.917-36.371-32.69-32.69-75.984-50.693-121.908-50.693h-74.798c-45.924 0-89.218 18.003-121.908 50.693-32.689 32.689-50.692 75.984-50.692 121.908 0 63.108 35.028 121.339 90.185 151.518-4.458 5.805-7.807 9.268-8.45 9.846-8.007 6.746-10.748 18.304-6.667 28.106 3.247 7.799 11.604 15.654 25.577 15.654 1.133 0 2.303-.052 3.509-.159 14.479-1.29 47.775-11.212 77.295-32.363h65.95c45.924 0 89.218-18.003 121.908-50.693 32.689-32.69 50.692-75.985 50.692-121.909 0-19.028-3.1-37.601-9.045-55.158 11.464 4.868 21.624 7.359 27.656 7.896.923.082 1.815.121 2.684.121 10.947 0 17.551-6.289 20.146-12.524 3.316-7.966 1.191-17.004-5.286-22.539-.393-.371-1.444-1.475-2.897-3.207 36.04-21.29 58.744-60.312 58.744-102.497zm-264.603 340.509h-69.216c-2.156 0-4.254.696-5.981 1.986-27.856 20.793-59.069 29.498-69.821 30.455-4.593.417-7.815-.778-8.849-3.261-.644-1.547-.477-3.805 1.088-5.122 2.522-2.124 10.438-10.624 18.81-23.342 1.603-2.435 2.063-5.446 1.262-8.248-.802-2.803-2.785-5.115-5.433-6.334-54.222-24.96-89.258-79.417-89.258-138.736 0-84.145 68.456-152.602 152.601-152.602h74.798c84.145 0 152.601 68.457 152.601 152.602s-68.457 152.602-152.602 152.602z"/><path d="m235.915 108.295c5.522 0 10-4.478 10-10s-4.478-10-10-10h-.007c-5.522 0-9.996 4.478-9.996 10s4.481 10 10.003 10z"/></g></g></svg>